<svg width="512" height="128" viewBox="0 0 512 128" fill="none" xmlns="http://www.w3.org/2000/svg">
<!-- Логотип - ТОЛЬКО ТЕКСТ (рыбка обрезана) -->
<!-- Чёрный цвет для прозрачности -->
<path d="M98.5 5.4C98.5 5.4 90.8 52.1 91.2 67.4C91.5 82.6 95.5 106.1 95.5 106.3H71.8L70 89.4C69.9 89.5 69.8 89.6 69.7 89.7C66.1 95.5 61.5 100.1 55.9 103.3C50.4 106.6 44.1 108.2 37.2 108.2C30 108.2 23.5 106.6 18 103.3C12.5 100.1 8.1 95.5 5 89.7C1.9 83.7 0.3 76.9 0.3 69.1C0.3 61.2 1.9 54.3 5 48.5C8.1 42.6 12.5 38.1 18 34.9C23.5 31.6 30 30 37.2 30C44.1 30 50.4 31.6 55.9 34.9C61.4 38.1 66 42.5 69.7 48.3L74.5 5.4H98.5ZM140 30C146.9 30 153.2 31.6 158.7 34.9C164.1 38.1 168.7 42.5 172.4 48.2L174.2 32.1H198C197.7 34 193.3 56.5 193.2 71.1C193.2 85.8 197.6 108.5 197.6 108.5H173.8L172 92.3C168.4 98 163.8 102.5 158.3 105.7C152.8 108.9 146.5 110.5 139.6 110.5C132.4 110.5 125.9 108.9 120.4 105.7C114.9 102.5 110.6 98 107.5 92.2C104.4 86.2 102.8 79.4 102.8 71.6C102.8 63.7 104.4 56.8 107.5 51C110.6 45.1 114.9 40.6 120.4 37.4C125.9 34.2 132.4 32.6 139.6 32.6L140 30ZM272.5 86.7L296 32.2H320.5L285.2 106.5H259.2L224.3 32.2H249.5L272.5 86.7ZM207.5 30C209.1 30 210.7 30.1 212.3 30.3C214 30.4 215.5 30.7 217 31.2V51C214.7 50.5 212.4 50.1 210.1 50C207.8 49.7 205.7 49.6 203.8 49.6C199.6 49.6 195.9 50.5 192.5 52.2C189.1 54 186.4 56.7 184.4 60.5C182.4 64.2 181.4 69 181.4 74.9V106.8H158.4C158.4 106.8 159.6 66.5 158.4 56.8C157.2 47.1 153.7 32.2 153.7 32.1H177L180.3 52C181.7 48.1 183.4 44.6 185.5 41.5C187.9 37.9 191 35.1 194.6 33.1C198.3 31 202.6 30 207.5 30ZM352.5 106.8H329.4V30.7C329.4 30.7 336.3 32.9 340.9 33C345.5 33 352.5 30.7 352.5 30.7V106.8ZM420.5 30C427.6 30 433.7 31.4 438.6 34.3C443.6 37.1 447.4 41.1 450 46.3C452.6 51.6 453.9 57.8 453.9 65.1V106.8H431V68.1C431 61.7 429.4 56.9 426.3 53.5C423.2 50.1 418.7 48.4 412.8 48.4C408.7 48.4 405.1 49.3 402.1 51.2C399.1 52.9 396.7 55.4 395.1 58.6C393.4 61.9 392.6 65.7 392.6 70.2V106.8H369.6C369.6 106.8 370.8 67.2 369.6 57.3C368.4 47.4 364.9 32.2 364.9 32.1H388L390.7 48.5C391 47.9 391.3 47.3 391.7 46.8C395 41.2 399.1 37.1 404.1 34.3C409.1 31.4 414.7 30 420.5 30ZM43.5 47.6C39.5 47.6 36 48.5 32.9 50.4C29.9 52.2 27.6 54.8 25.9 58C24.1 61.2 23.3 64.9 23.3 69.2C23.3 73.4 24.1 77.1 25.9 80.3C27.6 83.5 29.9 86 32.9 87.8C36 89.7 39.5 90.6 43.5 90.6C47.5 90.6 51.2 89.7 54.7 87.8C58.2 86 60.9 83.5 63.6 80.3C66.3 77.1 68.3 73.3 69.7 69.2C68.3 65 66.3 61.2 63.6 58C60.9 54.8 58.2 52.2 54.7 50.4C51.2 48.5 47.5 47.6 43.5 47.6ZM145.5 47.6C141.5 47.6 138 48.5 134.9 50.4C131.9 52.2 129.6 54.8 127.9 58C126.1 61.2 125.3 64.9 125.3 69.2C125.3 73.4 126.1 77.1 127.9 80.3C129.6 83.5 131.9 86 134.9 87.8C138 89.7 141.5 90.6 145.5 90.6C149.5 90.6 153.2 89.7 156.7 87.8C160.2 86 162.9 83.5 165.6 80.3C168.3 77.1 170.3 73.3 170.3 69.2C170.3 65 168.3 61.2 165.6 58C162.9 54.8 160.2 52.2 156.7 50.4C153.2 48.5 149.5 47.6 145.5 47.6Z" fill="white"/>
</svg>

