<svg width="97" height="21" viewBox="0 0 97 21" fill="none" xmlns="http://www.w3.org/2000/svg">
<path d="M18.667 1.02051C18.667 1.02051 17.2148 9.89511 17.2803 12.8008C17.3454 15.6921 18.0903 20.1533 18.0976 20.1973H13.5918L13.2353 16.9902C13.2214 17.0129 13.2095 17.037 13.1953 17.0596C12.5021 18.1719 11.6275 19.0351 10.5713 19.6494C9.515 20.2637 8.3262 20.5713 7.0058 20.5713C5.6196 20.5712 4.398 20.2637 3.3418 19.6494C2.3023 19.0186 1.4856 18.1472 0.891602 17.0351C0.297502 15.9062 0 14.6025 0 13.125C0 11.6141 0.297402 10.3019 0.891602 9.18941C1.4857 8.07721 2.3021 7.20511 3.3418 6.57421C4.398 5.94331 5.6196 5.62801 7.0058 5.62791C8.3261 5.62791 9.515 5.94341 10.5713 6.57421C11.6243 7.18661 12.5053 8.04681 13.2138 9.15431L14.1367 1.02051H18.667ZM26.5566 5.62791C27.877 5.62791 29.0657 5.94331 30.1221 6.57421C31.1524 7.17351 32.0162 8.01081 32.7168 9.08401L33.0683 6.02641H37.5986C37.5916 6.06241 36.758 10.3294 36.7568 13.0996C36.7558 15.8815 37.5986 20.1973 37.5986 20.1973H33.0683L32.7119 17.1103C32.024 18.1976 31.1617 19.0447 30.1221 19.6494C29.0658 20.2637 27.877 20.5703 26.5566 20.5703C25.1704 20.5702 23.9488 20.2637 22.8926 19.6494C21.8529 19.0185 21.0365 18.1464 20.4424 17.0342C19.8482 15.9051 19.5508 14.6017 19.5508 13.124C19.5508 11.6132 19.8482 10.3018 20.4424 9.18941C21.0365 8.07721 21.8529 7.20511 22.8926 6.57421C23.9488 5.94331 25.1704 5.62801 26.5566 5.62791ZM62.2272 16.3584L66.6862 6.02731H71.3412L64.6322 20.1982H59.6802L52.9961 6.02731H57.7988L62.2272 16.3584ZM49.8701 5.62791C50.1672 5.62791 50.4735 5.64451 50.7871 5.67771C51.1004 5.71091 51.3973 5.76861 51.6777 5.85161V9.61231C51.2488 9.51271 50.8116 9.44631 50.3662 9.41311C49.9372 9.36331 49.5407 9.33891 49.1777 9.33891C48.369 9.33891 47.6427 9.50491 46.999 9.83691C46.3554 10.1689 45.8434 10.6915 45.4638 11.4053C45.0842 12.1192 44.8945 13.0331 44.8945 14.1455V20.1973H40.5127C40.5127 20.1973 40.7453 12.5549 40.5127 10.708C40.2812 8.86981 39.6273 6.05301 39.6211 6.02641H44.0527L44.6748 9.80371C44.9373 9.06321 45.2667 8.40181 45.6621 7.81931C46.1241 7.13871 46.7015 6.60741 47.3945 6.22561C48.0876 5.82721 48.913 5.62801 49.8701 5.62791ZM77.3792 20.1973H72.9962V5.85251C72.9962 5.85251 74.3082 6.27351 75.1752 6.27541C76.0412 6.27721 77.3792 5.85251 77.3792 5.85251V20.1973ZM90.3492 5.62791C91.7032 5.62791 92.8502 5.90141 93.7912 6.44921C94.7322 6.98051 95.4502 7.74501 95.9452 8.74121C96.4402 9.73721 96.6872 10.924 96.6872 12.3017V20.1973H92.3312V12.9502C92.3312 11.7383 92.0332 10.8165 91.4392 10.1855C90.8452 9.53801 89.9862 9.21391 88.8642 9.21391C88.0892 9.21391 87.4122 9.38881 86.8352 9.73731C86.2572 10.0693 85.8112 10.5421 85.4982 11.1562C85.1842 11.7706 85.0272 12.5019 85.0272 13.3486V20.1973H80.6452C80.6452 20.1973 80.8752 12.6934 80.6452 10.8076C80.4162 8.93071 79.7602 6.05331 79.7542 6.02641H84.1362L84.6442 9.14061C84.7042 9.03011 84.7652 8.92111 84.8292 8.81541C85.4562 7.76951 86.2402 6.98051 87.1802 6.44921C88.1382 5.90141 89.1942 5.62801 90.3492 5.62791ZM8.2441 9.04001C7.485 9.04001 6.8169 9.21491 6.2392 9.56351C5.6781 9.91211 5.2324 10.3935 4.9023 11.0078C4.5722 11.6055 4.4072 12.3114 4.4072 13.125C4.4073 13.9218 4.5723 14.627 4.9023 15.2412C5.2324 15.8389 5.6781 16.3124 6.2392 16.6611C6.8168 17.0097 7.4851 17.1846 8.2441 17.1846C9.0033 17.1846 9.7129 17.0097 10.373 16.6611C11.0497 16.3124 11.6446 15.8389 12.1562 15.2412C12.6676 14.6271 13.0553 13.9216 13.3193 13.125C13.0553 12.3116 12.6678 11.6055 12.1562 11.0078C11.6446 10.3935 11.0497 9.91211 10.373 9.56351C9.7129 9.21481 9.0033 9.04001 8.2441 9.04001ZM27.7949 9.04001C27.0359 9.04001 26.3676 9.21401 25.79 9.56251C25.229 9.91111 24.7832 10.3927 24.4531 11.0068C24.123 11.6045 23.958 12.3105 23.958 13.124C23.958 13.921 24.123 14.6269 24.4531 15.2412C24.7832 15.8388 25.229 16.3115 25.79 16.6601C26.3677 17.0088 27.0357 17.1836 27.7949 17.1836C28.5541 17.1836 29.2636 17.0088 29.9238 16.6601C30.6005 16.3115 31.1954 15.8389 31.707 15.2412C32.2187 14.6269 32.87 13.9719 32.8701 13.124C32.8701 12.2761 32.2186 11.6045 31.707 11.0068C31.1954 10.3925 30.6005 9.91121 29.9238 9.56251C29.2637 9.21391 28.554 9.04001 27.7949 9.04001ZM75.1752 0C75.9832 0 76.6282 0.19917 77.1062 0.59765C77.5852 0.99603 77.8242 1.53541 77.8242 2.21581C77.8242 2.89651 77.5852 3.44531 77.1062 3.86031C76.6282 4.25881 75.9832 4.45801 75.1752 4.45801C74.3992 4.45801 73.7632 4.25871 73.2682 3.86031C72.7902 3.44531 72.5512 2.89651 72.5512 2.21581C72.5512 1.53541 72.7902 0.99603 73.2682 0.59765C73.7632 0.19922 74.3992 4e-05 75.1752 0Z" fill="#3A3A3A"/>
</svg>
