<svg width="139" height="36" viewBox="0 0 139 36" fill="none" xmlns="http://www.w3.org/2000/svg">
<path d="M0.474977 0.330093C0.475005 0.70652 0.577752 1.19966 0.728425 1.68583C0.87818 2.16894 1.06825 2.62352 1.22926 2.91977L1.2848 3.01385C1.41643 3.21896 1.57223 3.33923 1.77352 3.4278C2.02143 3.5368 2.33761 3.59803 2.79034 3.68231L3.14981 3.73876C5.89145 4.16154 23.0365 7.57088 30.0102 22.1586C30.2239 22.6718 30.296 23.1698 30.1708 23.6213C30.0476 24.065 29.7711 24.5152 29.3387 24.987C28.3068 26.2944 20.7091 32.8729 6.58095 31.8746H6.57691C6.36864 31.8563 6.04157 31.7905 5.8206 31.53C5.58892 31.2567 5.53777 30.8492 5.70347 30.2951L5.75901 30.1386C5.82979 29.962 5.94248 29.7284 6.0791 29.4563C6.26406 29.0879 6.509 28.6182 6.78189 28.0817C7.33064 27.0028 8.00885 25.6242 8.6257 24.1016C9.8653 21.0419 10.8333 17.4578 10.0707 14.5689L10.0676 14.558L10.0656 14.5461C10.0329 14.3468 9.91521 14.0465 9.67685 13.8182C9.47712 13.627 9.18138 13.4749 8.74182 13.4864L8.54492 13.5013C7.47844 13.6359 6.21893 14.079 5.53081 14.3619L5.27332 14.4718C5.08313 14.5568 4.84926 14.6944 4.723 14.9303C4.60479 15.1512 4.54905 15.5215 4.85326 16.1474L4.93404 16.3257C5.72289 18.1968 6.02959 22.9309 1.95729 30.5436L1.53522 31.3151L1.5332 31.319C1.53181 31.3215 1.52892 31.3249 1.52613 31.3299C1.5205 31.34 1.51276 31.3557 1.5019 31.3755L1.49902 31.3807C1.47717 31.4205 1.44582 31.4775 1.40799 31.5488C1.32887 31.6978 1.21963 31.9101 1.099 32.1598C0.917358 32.536 0.712227 32.9934 0.54667 33.4512L0.396217 33.9067C0.256796 34.3792 0.224351 34.6593 0.321495 34.8584C0.412316 35.0446 0.664315 35.245 1.3676 35.4071L1.83814 35.4992C3.41075 35.7791 8.20521 36.4186 13.9915 35.5923C20.5966 34.649 29.539 31.8746 34.1603 24.5859C34.5197 24.0191 34.6713 23.6969 34.7136 23.3599C34.7494 23.0738 34.6849 22.7388 34.4319 22.1586L34.3118 21.8952C33.4375 20.0399 25.6868 3.0434 1.4817 0.0528041L1.46756 0.0508235L1.45444 0.0478525C1.25868 0.00302381 0.978232 -0.0225504 0.761747 0.0270559C0.655718 0.0513643 0.585635 0.0898154 0.54364 0.132029C0.507457 0.168433 0.474977 0.224482 0.474977 0.330093Z" fill="#3A3A3A"/>
<path d="M25.0611 20.8077L25.258 20.8235C25.723 20.8809 26.2243 21.0843 26.5919 21.4544C27.0239 21.8895 27.2494 22.5341 27.0443 23.3677L27.0422 23.3756L27.0392 23.3835C26.7481 24.3031 26.0362 24.7565 25.3065 24.8759C24.5959 24.9921 23.8322 24.7971 23.4021 24.3808L23.395 24.3738L23.389 24.3669C23.0024 23.9303 22.8002 23.484 22.7548 23.0527C22.7095 22.6211 22.8236 22.2232 23.0365 21.8891C23.4569 21.23 24.2667 20.8077 25.052 20.8077H25.0611Z" fill="#3A3A3A"/>
<path d="M60.5928 9.7627C60.5928 9.7627 59.1406 18.6373 59.2061 21.543C59.2712 24.4343 60.0161 28.8955 60.0234 28.9395H55.5176L55.1611 25.7324C55.1472 25.7551 55.1353 25.7792 55.1211 25.8018C54.4279 26.9141 53.5533 27.7773 52.4971 28.3916C51.4408 29.0059 50.252 29.3135 48.9316 29.3135C47.5454 29.3134 46.3238 29.0059 45.2676 28.3916C44.2281 27.7608 43.4114 26.8894 42.8174 25.7773C42.2233 24.6484 41.9258 23.3447 41.9258 21.8672C41.9258 20.3563 42.2232 19.0441 42.8174 17.9316C43.4115 16.8194 44.2279 15.9473 45.2676 15.3164C46.3238 14.6855 47.5454 14.3702 48.9316 14.3701C50.2519 14.3701 51.4408 14.6856 52.4971 15.3164C53.5501 15.9288 54.4311 16.789 55.1396 17.8965L56.0625 9.7627H60.5928ZM68.4824 14.3701C69.8028 14.3701 70.9915 14.6855 72.0479 15.3164C73.0782 15.9157 73.942 16.753 74.6426 17.8262L74.9941 14.7686H79.5244C79.5174 14.8046 78.6838 19.0716 78.6826 21.8418C78.6816 24.6237 79.5244 28.9395 79.5244 28.9395H74.9941L74.6377 25.8525C73.9498 26.9398 73.0875 27.7869 72.0479 28.3916C70.9916 29.0059 69.8028 29.3125 68.4824 29.3125C67.0962 29.3124 65.8746 29.0059 64.8184 28.3916C63.7787 27.7607 62.9623 26.8886 62.3682 25.7764C61.774 24.6473 61.4766 23.3439 61.4766 21.8662C61.4766 20.3554 61.774 19.044 62.3682 17.9316C62.9623 16.8194 63.7787 15.9473 64.8184 15.3164C65.8746 14.6855 67.0962 14.3702 68.4824 14.3701ZM104.153 25.1006L108.612 14.7695H113.267L106.558 28.9404H101.606L94.9219 14.7695H99.7246L104.153 25.1006ZM91.7959 14.3701C92.093 14.3701 92.3993 14.3867 92.7129 14.4199C93.0262 14.4531 93.3231 14.5108 93.6035 14.5938V18.3545C93.1746 18.2549 92.7374 18.1885 92.292 18.1553C91.863 18.1055 91.4665 18.0811 91.1035 18.0811C90.2948 18.0811 89.5685 18.2471 88.9248 18.5791C88.2812 18.9111 87.7692 19.4337 87.3896 20.1475C87.01 20.8614 86.8203 21.7753 86.8203 22.8877V28.9395H82.4385C82.4385 28.9395 82.6711 21.2971 82.4385 19.4502C82.207 17.612 81.5531 14.7952 81.5469 14.7686H85.9785L86.6006 18.5459C86.8631 17.8054 87.1925 17.144 87.5879 16.5615C88.0499 15.8809 88.6273 15.3496 89.3203 14.9678C90.0134 14.5694 90.8388 14.3702 91.7959 14.3701ZM119.305 28.9395H114.922V14.5947C114.922 14.5947 116.234 15.0157 117.101 15.0176C117.967 15.0194 119.305 14.5947 119.305 14.5947V28.9395ZM132.275 14.3701C133.629 14.3701 134.776 14.6436 135.717 15.1914C136.658 15.7227 137.376 16.4872 137.871 17.4834C138.366 18.4794 138.613 19.6662 138.613 21.0439V28.9395H134.257V21.6924C134.257 20.4805 133.959 19.5587 133.365 18.9277C132.771 18.2802 131.912 17.9561 130.79 17.9561C130.015 17.9561 129.338 18.131 128.761 18.4795C128.183 18.8115 127.737 19.2843 127.424 19.8984C127.11 20.5128 126.953 21.2441 126.953 22.0908V28.9395H122.571C122.571 28.9395 122.801 21.4356 122.571 19.5498C122.342 17.6729 121.686 14.7955 121.68 14.7686H126.062L126.57 17.8828C126.63 17.7723 126.691 17.6633 126.755 17.5576C127.382 16.5117 128.166 15.7227 129.106 15.1914C130.064 14.6436 131.12 14.3702 132.275 14.3701ZM50.1699 17.7822C49.4108 17.7822 48.7427 17.9571 48.165 18.3057C47.6039 18.6543 47.1582 19.1357 46.8281 19.75C46.498 20.3477 46.333 21.0536 46.333 21.8672C46.3331 22.664 46.4981 23.3692 46.8281 23.9834C47.1582 24.5811 47.6039 25.0546 48.165 25.4033C48.7426 25.7519 49.4109 25.9268 50.1699 25.9268C50.9291 25.9268 51.6387 25.7519 52.2988 25.4033C52.9755 25.0546 53.5704 24.5811 54.082 23.9834C54.5934 23.3693 54.9811 22.6638 55.2451 21.8672C54.9811 21.0538 54.5936 20.3477 54.082 19.75C53.5704 19.1357 52.9755 18.6543 52.2988 18.3057C51.6387 17.957 50.9291 17.7822 50.1699 17.7822ZM69.7207 17.7822C68.9617 17.7822 68.2934 17.9562 67.7158 18.3047C67.1548 18.6533 66.709 19.1349 66.3789 19.749C66.0488 20.3467 65.8838 21.0527 65.8838 21.8662C65.8838 22.6632 66.0488 23.3691 66.3789 23.9834C66.709 24.581 67.1548 25.0537 67.7158 25.4023C68.2935 25.751 68.9615 25.9258 69.7207 25.9258C70.4799 25.9258 71.1894 25.751 71.8496 25.4023C72.5263 25.0537 73.1212 24.5811 73.6328 23.9834C74.1445 23.3691 74.7958 22.7141 74.7959 21.8662C74.7959 21.0183 74.1444 20.3467 73.6328 19.749C73.1212 19.1347 72.5263 18.6534 71.8496 18.3047C71.1895 17.9561 70.4798 17.7822 69.7207 17.7822ZM117.101 8.74219C117.909 8.74219 118.554 8.94136 119.032 9.33984C119.511 9.73822 119.75 10.2776 119.75 10.958C119.75 11.6387 119.511 12.1875 119.032 12.6025C118.554 13.001 117.909 13.2002 117.101 13.2002C116.325 13.2002 115.689 13.0009 115.194 12.6025C114.716 12.1875 114.477 11.6387 114.477 10.958C114.477 10.2776 114.716 9.73822 115.194 9.33984C115.689 8.94141 116.325 8.74223 117.101 8.74219Z" fill="#3A3A3A"/>
</svg>
